<?xml version="1.0" standalone="no"?>
<!DOCTYPE svg PUBLIC "-//W3C//DTD SVG 20010904//EN"
 "http://www.w3.org/TR/2001/REC-SVG-20010904/DTD/svg10.dtd">
<svg version="1.0" xmlns="http://www.w3.org/2000/svg"
 width="172.000000pt" height="66.000000pt" viewBox="0 0 172.000000 66.000000"
 preserveAspectRatio="xMidYMid meet">

<g transform="translate(0.000000,66.000000) scale(0.100000,-0.100000)"
fill="#000000" stroke="none">
<path d="M344 400 c-38 -32 -75 -59 -83 -60 -15 0 -111 -58 -111 -67 0 -3 21
7 46 21 26 14 54 26 63 26 9 0 47 22 84 49 l68 50 43 -30 43 -31 43 22 c47 24
47 38 -1 21 -26 -9 -36 -8 -59 9 -15 10 -33 26 -40 35 -7 8 -16 15 -19 15 -4
0 -38 -27 -77 -60z"/>
<path d="M340 344 c-36 -29 -73 -54 -83 -54 -18 0 -107 -47 -107 -56 0 -2 12
-1 27 2 23 6 25 4 20 -15 -6 -23 3 -27 21 -9 9 9 12 9 12 -1 0 -7 17 0 39 18
44 35 56 39 46 14 -3 -10 11 -1 32 20 42 40 53 45 53 22 0 -8 6 -12 13 -9 7 2
23 -12 36 -33 l22 -38 -5 33 c-7 39 -1 40 37 5 27 -26 29 -26 18 -5 l-12 23
28 -17 c15 -10 35 -23 43 -29 8 -6 51 -13 95 -14 l80 -3 -95 69 c-123 89 -114
85 -144 72 -23 -11 -30 -8 -68 23 l-43 35 -65 -53z m158 -30 c50 -20 32 -29
-22 -11 -41 14 -44 14 -39 -1 3 -11 -3 -8 -15 7 -18 23 -20 23 -45 6 -15 -10
-34 -14 -44 -11 -14 6 -12 10 13 25 16 10 35 25 43 34 12 15 16 15 43 -8 17
-14 46 -32 66 -41z"/>
<path d="M869 297 c-14 -8 -25 -22 -26 -37 -1 -14 0 -18 4 -10 19 47 28 43 33
-15 6 -69 23 -81 42 -29 l13 37 5 -33 c5 -34 24 -51 32 -28 7 21 -6 118 -17
121 -5 1 -17 -18 -27 -43 l-17 -45 0 42 c-1 49 -8 56 -42 40z"/>
<path d="M1000 286 c-20 -53 -20 -80 -1 -32 11 28 19 52 16 54 -2 3 -9 -7 -15
-22z"/>
<path d="M1026 288 c-13 -43 -26 -111 -22 -115 9 -9 26 8 26 26 0 9 7 26 15
37 13 18 14 16 12 -21 -1 -26 2 -40 11 -40 6 0 12 3 12 8 0 4 0 23 0 42 0 24
-5 35 -15 35 -8 0 -15 9 -15 20 0 22 -18 28 -24 8z"/>
<path d="M1117 294 c-8 -8 1 -24 14 -24 5 0 9 7 9 15 0 15 -12 20 -23 9z"/>
<path d="M1274 263 c-9 -50 -21 -73 -39 -73 -21 0 -19 13 5 28 30 19 26 44 -7
40 -21 -2 -29 -10 -37 -35 -5 -18 -13 -33 -19 -33 -5 0 -6 10 -3 23 18 62 19
77 3 77 -9 0 -18 -13 -22 -32 -11 -54 -16 -68 -25 -68 -5 0 -6 16 -3 35 4 22
2 35 -5 35 -15 0 -32 -62 -21 -74 10 -12 119 -14 142 -4 10 6 17 5 17 -2 0
-22 20 -9 26 18 11 52 18 57 23 18 6 -36 8 -39 43 -41 44 -2 54 3 67 35 9 24
10 24 10 -7 1 -44 17 -42 28 5 7 27 14 36 26 34 9 -2 17 2 17 8 0 14 -57 13
-63 -2 -4 -10 -8 -10 -15 0 -17 25 -56 10 -67 -25 -12 -44 -28 -42 -19 2 6 31
4 35 -16 35 -17 0 -20 4 -15 20 4 14 2 20 -9 20 -10 0 -18 -14 -22 -37z m-34
-28 c-7 -9 -15 -13 -17 -11 -7 7 7 26 19 26 6 0 6 -6 -2 -15z m162 -10 c-2
-14 -8 -28 -13 -31 -10 -6 -12 39 -2 49 13 14 20 6 15 -18z"/>
<path d="M1505 238 c-10 -46 -10 -57 -1 -60 5 -2 14 11 20 29 17 48 28 52 24
8 -2 -27 1 -40 10 -40 6 0 12 3 12 8 0 4 0 23 0 42 0 32 -2 35 -30 35 -23 0
-31 -5 -35 -22z"/>
<path d="M425 178 c-38 -5 -114 -8 -168 -5 -53 2 -95 2 -93 0 2 -3 26 -11 53
-19 l48 -14 -63 6 c-34 3 -80 11 -102 19 -47 17 -53 7 -11 -18 57 -33 125 -39
396 -30 143 4 235 10 205 13 -40 4 -49 7 -34 13 11 4 49 3 85 -2 35 -5 66 -7
67 -6 10 9 -62 35 -119 44 -75 13 -167 12 -264 -1z m130 -23 c-89 -15 -121
-18 -113 -10 10 10 92 23 143 23 45 0 42 -2 -30 -13z"/>
</g>
</svg>
