<?xml version="1.0" standalone="no"?>
<!DOCTYPE svg PUBLIC "-//W3C//DTD SVG 20010904//EN"
 "http://www.w3.org/TR/2001/REC-SVG-20010904/DTD/svg10.dtd">
<svg version="1.0" xmlns="http://www.w3.org/2000/svg"
 width="78.000000pt" height="66.000000pt" viewBox="0 0 78.000000 66.000000"
 preserveAspectRatio="xMidYMid meet">

<g transform="translate(0.000000,66.000000) scale(0.100000,-0.100000)"
fill="#000000" stroke="none">
<path d="M309 474 c-24 -20 -43 -41 -41 -46 1 -5 -2 -7 -7 -4 -5 4 -12 2 -16
-4 -3 -5 -15 -10 -26 -10 -11 0 -43 -13 -72 -30 -53 -31 -58 -37 -13 -20 23 8
26 7 26 -11 0 -17 3 -19 14 -10 10 8 15 9 18 1 2 -6 18 0 38 15 20 15 36 21
40 15 3 -6 19 3 35 20 32 33 45 38 45 14 0 -8 4 -13 9 -9 6 3 22 -11 36 -32
l25 -38 -6 35 c-7 34 -6 34 12 19 33 -28 44 -32 37 -13 -5 14 1 12 28 -8 27
-20 49 -27 113 -31 43 -3 75 -2 70 2 -5 5 -50 38 -100 74 -83 60 -92 64 -114
52 -22 -12 -28 -10 -66 21 l-42 34 -43 -36z m126 -39 c41 -21 44 -25 20 -21
-16 3 -40 8 -53 12 -18 5 -21 3 -17 -12 3 -11 1 -10 -7 4 -8 17 -17 22 -32 18
-58 -17 -66 -17 -66 -8 0 6 8 13 19 17 10 3 26 14 36 25 16 18 20 18 34 6 9
-8 39 -26 66 -41z"/>
<path d="M405 308 c-49 -5 -136 -7 -193 -5 -56 2 -101 2 -99 1 2 -2 30 -10 63
-19 l59 -15 -67 5 c-37 3 -85 12 -108 20 -45 16 -45 3 1 -20 59 -31 129 -36
379 -28 135 4 220 10 190 13 -38 3 -49 7 -37 12 10 5 28 6 40 4 110 -22 142
-9 44 18 -72 20 -166 25 -272 14z m126 -18 c-51 -12 -147 -23 -140 -16 9 10
89 24 134 24 l40 0 -34 -8z"/>
<path d="M58 149 c-10 -5 -18 -20 -17 -32 l0 -22 9 21 c18 45 30 36 30 -20 0
-67 21 -77 42 -18 l13 37 5 -42 c8 -67 28 -40 22 30 -5 68 -19 70 -41 6 l-16
-44 -3 48 c-3 48 -12 55 -44 36z"/>
<path d="M191 138 c-16 -43 -22 -68 -18 -68 3 0 12 20 20 45 16 45 14 65 -2
23z"/>
<path d="M215 138 c-2 -7 -9 -32 -14 -55 -7 -33 -6 -43 4 -43 7 0 15 14 19 30
7 40 24 38 22 -2 -1 -32 -1 -32 49 -33 28 0 58 3 67 7 9 5 19 4 22 0 3 -4 20
-6 39 -4 29 3 36 9 41 33 7 39 21 37 21 -3 0 -31 2 -32 39 -31 41 1 66 21 66
54 0 43 -58 33 -67 -12 -8 -39 -24 -37 -21 4 2 25 -1 32 -15 31 -13 -2 -16 3
-12 17 4 13 2 19 -8 19 -10 0 -17 -16 -22 -46 -3 -25 -13 -48 -21 -51 -22 -8
-32 7 -11 18 21 12 23 49 3 49 -21 0 -46 -28 -46 -51 0 -10 -5 -19 -11 -19 -7
0 -9 10 -4 28 16 62 16 72 0 66 -8 -4 -15 -9 -16 -13 -5 -44 -12 -68 -21 -76
-7 -7 -9 1 -5 28 8 49 -18 51 -27 2 -4 -19 -11 -35 -16 -35 -5 0 -7 14 -3 31
5 25 2 31 -15 36 -12 3 -19 10 -15 19 3 8 0 14 -6 14 -7 0 -14 -6 -16 -12z
m197 -50 c-7 -7 -12 -8 -12 -2 0 14 12 26 19 19 2 -3 -1 -11 -7 -17z m150 -30
c-15 -15 -21 4 -9 32 l10 25 5 -24 c2 -13 -1 -28 -6 -33z"/>
<path d="M300 140 c0 -5 5 -10 10 -10 6 0 10 5 10 10 0 6 -4 10 -10 10 -5 0
-10 -4 -10 -10z"/>
<path d="M605 106 c-14 -48 -15 -66 0 -66 9 0 15 9 15 26 0 17 6 28 20 31 11
3 20 9 20 13 0 12 -51 9 -55 -4z"/>
<path d="M662 80 c-8 -32 -7 -40 3 -40 7 0 16 13 20 30 8 38 23 39 21 3 -2
-42 18 -33 22 10 3 35 2 37 -26 37 -26 0 -31 -5 -40 -40z"/>
</g>
</svg>
